<svg width="80" height="80" viewBox="0 0 80 80" fill="none" xmlns="http://www.w3.org/2000/svg">
<path d="M9.36555 17.3202C9.21743 13.0608 12.5356 9.1333 17.0212 9.1333H62.9837C67.4693 9.1333 70.7874 13.0608 70.6393 17.3202C70.4968 21.4114 70.6818 26.7114 72.0156 31.0327C73.3537 35.3677 75.6099 38.1071 79.3056 38.4596V42.4514C75.6099 42.8039 73.3537 45.5433 72.0156 49.8783C70.6818 54.1996 70.4968 59.4996 70.6393 63.5908C70.7874 67.8502 67.4693 71.7771 62.9837 71.7771H17.0212C12.5356 71.7771 9.21743 67.8496 9.36555 63.5908C9.50805 59.4996 9.32305 54.1996 7.98868 49.8783C6.65118 45.5439 4.38868 42.8039 0.693054 42.4514V38.4596C4.38868 38.1077 6.65118 35.3677 7.98868 31.0327C9.32305 26.7114 9.50743 21.4114 9.36555 17.3202V17.3202Z" fill="url(#paint0_linear_3_84)"/>
<g filter="url(#filter0_d_3_84)">
<path d="M41.9435 57.335C49.2054 57.335 53.5814 53.7793 53.5814 47.9147C53.5814 43.4816 50.459 40.2722 45.8228 39.7641V39.5794C49.229 39.0253 51.902 35.8621 51.902 32.3295C51.902 27.2961 47.9281 24.0173 41.8726 24.0173H28.2477V57.335H41.9435ZM33.5463 28.2427H40.5953C44.4273 28.2427 46.6034 29.9513 46.6034 33.0452C46.6034 36.347 44.0725 38.1941 39.4836 38.1941H33.5463V28.2427ZM33.5463 53.1096V42.1423H40.5479C45.5626 42.1423 48.1646 43.9893 48.1646 47.5913C48.1646 51.1932 45.6337 53.1096 40.8554 53.1096H33.5463Z" fill="url(#paint1_linear_3_84)"/>
<path d="M41.9435 57.335C49.2054 57.335 53.5814 53.7793 53.5814 47.9147C53.5814 43.4816 50.459 40.2722 45.8228 39.7641V39.5794C49.229 39.0253 51.902 35.8621 51.902 32.3295C51.902 27.2961 47.9281 24.0173 41.8726 24.0173H28.2477V57.335H41.9435ZM33.5463 28.2427H40.5953C44.4273 28.2427 46.6034 29.9513 46.6034 33.0452C46.6034 36.347 44.0725 38.1941 39.4836 38.1941H33.5463V28.2427ZM33.5463 53.1096V42.1423H40.5479C45.5626 42.1423 48.1646 43.9893 48.1646 47.5913C48.1646 51.1932 45.6337 53.1096 40.8554 53.1096H33.5463Z" stroke="white" stroke-width="0.24566"/>
</g>
<defs>
<filter id="filter0_d_3_84" x="24.1943" y="20.9466" width="33.4405" height="41.4244" filterUnits="userSpaceOnUse" color-interpolation-filters="sRGB">
<feFlood flood-opacity="0" result="BackgroundImageFix"/>
<feColorMatrix in="SourceAlpha" type="matrix" values="0 0 0 0 0 0 0 0 0 0 0 0 0 0 0 0 0 0 127 0" result="hardAlpha"/>
<feOffset dy="0.98264"/>
<feGaussianBlur stdDeviation="1.96528"/>
<feColorMatrix type="matrix" values="0 0 0 0 0 0 0 0 0 0 0 0 0 0 0 0 0 0 0.15 0"/>
<feBlend mode="normal" in2="BackgroundImageFix" result="effect1_dropShadow_3_84"/>
<feBlend mode="normal" in="SourceGraphic" in2="effect1_dropShadow_3_84" result="shape"/>
</filter>
<linearGradient id="paint0_linear_3_84" x1="12.3747" y1="10.7912" x2="81.0675" y2="65.3203" gradientUnits="userSpaceOnUse">
<stop stop-color="#9013FE"/>
<stop offset="1" stop-color="#6610F2"/>
</linearGradient>
<linearGradient id="paint1_linear_3_84" x1="30.6447" y1="26.2098" x2="45.9985" y2="52.1776" gradientUnits="userSpaceOnUse">
<stop stop-color="white"/>
<stop offset="1" stop-color="#F1E5FC"/>
</linearGradient>
</defs>
</svg>
