<svg width="54" height="80" viewBox="0 0 54 80" fill="none" xmlns="http://www.w3.org/2000/svg">
<path fill-rule="evenodd" clip-rule="evenodd" d="M26.6666 40.0001C26.6666 32.6364 32.6363 26.6667 40 26.6667C47.3636 26.6667 53.3333 32.6364 53.3333 40.0001C53.3333 47.3638 47.3636 53.3334 40 53.3334C32.6363 53.3334 26.6666 47.3638 26.6666 40.0001Z" fill="#1ABCFE"/>
<path fill-rule="evenodd" clip-rule="evenodd" d="M0 66.6666C0 59.3029 5.96953 53.3333 13.3333 53.3333H26.6667V66.6666C26.6667 74.0303 20.697 79.9999 13.3333 79.9999C5.96953 79.9999 0 74.0303 0 66.6666Z" fill="#0ACF83"/>
<path fill-rule="evenodd" clip-rule="evenodd" d="M26.6666 0V26.6667H40C47.3636 26.6667 53.3333 20.697 53.3333 13.3333C53.3333 5.96953 47.3636 0 40 0H26.6666Z" fill="#FF7262"/>
<path fill-rule="evenodd" clip-rule="evenodd" d="M0 13.3333C0 20.697 5.96953 26.6667 13.3333 26.6667H26.6667V0H13.3333C5.96953 0 0 5.96953 0 13.3333Z" fill="#F24E1E"/>
<path fill-rule="evenodd" clip-rule="evenodd" d="M0 40.0001C0 47.3638 5.96953 53.3334 13.3333 53.3334H26.6667V26.6667H13.3333C5.96953 26.6667 0 32.6364 0 40.0001Z" fill="#A259FF"/>
</svg>
