<svg width="72" height="80" viewBox="0 0 72 80" fill="none" xmlns="http://www.w3.org/2000/svg">
<rect x="9.73804" y="9.45679" width="52.6518" height="58.7859" fill="white"/>
<path fill-rule="evenodd" clip-rule="evenodd" d="M57.7404 24H57.7118H23.2479L24.0721 32H56.9203C56.4388 39.008 54.9823 53.8553 54.4478 60.6113L35.998 65.8047V65.8203L35.9572 65.8398L17.4951 59.3438L16.2303 44H25.2798L25.9203 52.252L35.9735 56H35.998L46.0348 52.4004L47.067 40H15.8264C15.6754 38.396 13.7333 17.568 13.3947 16H58.5482C58.2952 18.64 58.0382 21.352 57.7404 24ZM0 0L6.5525 72.5918L35.9572 80L65.4393 72.4434L72 0H0Z" fill="#F16529"/>
</svg>
