<svg width="80" height="80" viewBox="0 0 80 80" fill="none" xmlns="http://www.w3.org/2000/svg">
<path d="M0 30C0 13.4315 13.4315 0 30 0H50C66.5685 0 80 13.4315 80 30V50C80 66.5685 66.5685 80 50 80H30C13.4315 80 0 66.5685 0 50V30Z" fill="#F7DF1E"/>
<path d="M21.035 66.8538L27.1569 63.1488C28.3381 65.2429 29.4125 67.0147 31.9897 67.0147C34.46 67.0147 36.0178 66.0485 36.0178 62.2897V36.7279H43.5356V62.396C43.5356 70.1825 38.9712 73.7269 32.3119 73.7269C26.2978 73.7269 22.8069 70.6122 21.0347 66.8532M47.619 66.0482L53.7403 62.5041C55.3519 65.1357 57.4462 67.0688 61.1512 67.0688C64.2665 67.0688 66.2528 65.5113 66.2528 63.3632C66.2528 60.7857 64.2122 59.8725 60.7753 58.3694L58.8962 57.5632C53.4722 55.2547 49.8744 52.3547 49.8744 46.2329C49.8744 40.5941 54.1703 36.2979 60.8831 36.2979C65.6625 36.2979 69.0994 37.9628 71.5694 42.3125L65.7156 46.0719C64.4265 43.7628 63.0309 42.85 60.8828 42.85C58.6809 42.85 57.2847 44.2463 57.2847 46.0719C57.2847 48.3272 58.6809 49.2407 61.9028 50.6369L63.7822 51.4422C70.1728 54.1813 73.7706 56.9735 73.7706 63.256C73.7706 70.0229 68.4544 73.7278 61.3122 73.7278C54.3312 73.7278 49.8203 70.3985 47.6187 66.0485" fill="black"/>
</svg>
