<svg width="80" height="80" viewBox="0 0 80 80" fill="none" xmlns="http://www.w3.org/2000/svg">
<path d="M47.1438 39.9258C47.1438 35.5123 43.9456 31.9338 40 31.9338C36.055 31.9338 32.8563 35.5123 32.8563 39.9258C32.8563 44.34 36.055 47.9181 40 47.9181C43.9456 47.9181 47.1438 44.34 47.1438 39.9258Z" fill="#53C1DE"/>
<path fill-rule="evenodd" clip-rule="evenodd" d="M63.2011 25.0883C64.7096 18.2301 66.6059 5.51224 59.9211 1.20049C53.2675 -3.09247 44.6091 5.13363 40.0371 10.0713C35.4784 5.18283 26.5768 -3.0081 19.8977 1.31735C13.2467 5.6247 15.2977 18.1317 16.8397 25.0329C10.6355 27.0043 0 31.2505 0 39.9258C0 48.5766 10.6244 53.1963 16.7919 55.1658C15.2442 62.1052 13.2959 74.4335 19.9554 78.7314C26.6595 83.056 35.5333 75.06 40.1477 70.0683C44.7491 75.0351 53.3243 83.0834 59.9792 78.7735C66.6549 74.4502 64.9163 61.9028 63.3741 54.9615C69.3528 52.9877 80 48.4686 80 39.9258C80 31.3338 69.3075 27.0532 63.2011 25.0883ZM62.4432 51.2831C61.4307 47.6972 60.064 43.884 58.3923 39.9449C59.988 36.0988 61.3016 32.3348 62.2859 28.772C66.7624 30.224 76.5827 33.5425 76.5827 39.9258C76.5827 46.3692 67.1589 49.7191 62.4432 51.2831ZM58.2667 75.4646C53.3013 78.68 45.9256 70.9834 42.5275 67.3258C44.7819 64.5674 47.0347 61.3606 49.2333 57.7997C53.1011 57.416 56.7547 56.7883 60.0683 55.9314C61.1536 60.8412 63.2539 72.2348 58.2667 75.4646ZM21.663 75.4188C16.6971 72.2154 18.9669 61.2141 20.1055 56.1025C23.3822 56.9135 27.0096 57.4969 30.8864 57.8486C33.0995 61.3329 35.4176 64.5357 37.7536 67.3406C34.8675 70.464 26.652 78.6369 21.663 75.4188ZM3.41731 39.9258C3.41731 33.4585 13.1789 30.164 17.7574 28.7157C18.7587 32.3585 20.0719 36.1674 21.6566 40.0191C20.0513 43.928 18.7194 47.7972 17.7089 51.4831C13.3432 50.0849 3.41731 46.3972 3.41731 39.9258ZM21.6099 4.62627C26.596 1.39741 34.3325 9.26101 37.6424 12.8004C35.3184 15.5924 33.0216 18.7711 30.8275 22.2354C27.0651 22.6255 23.4633 23.252 20.1522 24.0914C18.91 18.5253 16.6291 7.85166 21.6099 4.62627ZM51.6781 26.3911C54.2307 26.7514 56.6763 27.2308 58.9725 27.8172C58.2832 30.2892 57.424 32.8742 56.412 35.524C54.9451 32.4102 53.3704 29.3588 51.6781 26.3911ZM40.0381 15.5326C41.6144 17.443 43.1931 19.5763 44.7461 21.8908C41.596 21.724 38.4408 21.7234 35.2907 21.8883C36.8451 19.5953 38.4373 17.4652 40.0381 15.5326ZM23.6173 35.5212C22.6221 32.8806 21.7706 30.2843 21.0753 27.7769C23.3578 27.2055 25.792 26.7385 28.328 26.384C26.6309 29.3452 25.0589 32.3954 23.6173 35.5212ZM28.4008 53.7406C25.7811 53.4135 23.31 52.9702 21.0282 52.4145C21.7345 49.8631 22.6047 47.2108 23.6212 44.5132C25.0827 47.6717 26.6787 50.7514 28.4008 53.7406ZM40.1328 64.5892C38.5131 62.6338 36.8973 60.4711 35.3195 58.1449C38.4875 58.284 41.6616 58.2843 44.8293 58.1262C43.2715 60.4948 41.6984 62.6606 40.1328 64.5892ZM56.4445 44.376C57.5139 47.1028 58.4152 49.7406 59.1312 52.2489C56.8115 52.8412 54.3072 53.3182 51.6685 53.6723C53.3733 50.6483 54.9731 47.5495 56.4445 44.376ZM47.3261 54.1357C42.4803 54.5231 37.6043 54.5188 32.7568 54.1674C30.0024 49.6662 27.5504 44.9323 25.4339 40.0178C27.5403 35.1135 29.9744 30.3889 32.7157 25.8948C37.5667 25.4846 42.4475 25.4834 47.2984 25.8972C50.0163 30.3911 52.4467 35.1034 54.6019 39.9634C52.4723 44.8652 50.0253 49.5994 47.3261 54.1357ZM58.2141 4.51261C63.2016 7.73089 60.9816 19.1608 59.892 24.1311C56.5731 23.2741 52.9688 22.6366 49.1955 22.2403C46.9971 18.7386 44.7195 15.5544 42.4331 12.7984C45.7853 9.1828 53.2749 1.32581 58.2141 4.51261Z" fill="#53C1DE"/>
</svg>
