<svg width="30" height="30" viewBox="0 0 30 30" fill="none" xmlns="http://www.w3.org/2000/svg">
<g clip-path="url(#clip0_4_84)">
<path fill-rule="evenodd" clip-rule="evenodd" d="M25.3316 0.209498C25.9494 -0.0160398 26.6184 -0.0614589 27.2612 0.0787495C27.9103 0.220362 28.5051 0.545386 28.9749 1.01518C29.4446 1.48498 29.7696 2.07979 29.9113 2.72891C30.0514 3.3716 30.006 4.04077 29.7806 4.65841L22.122 27.6127C21.9354 28.1771 21.6064 28.6859 21.1674 29.087C20.7296 29.4871 20.1966 29.768 19.6194 29.9034C19.0421 30.0442 18.438 30.0322 17.8666 29.8689C17.2957 29.7059 16.777 29.3973 16.3613 28.9734L12.2527 24.8836L7.9369 27.1154C7.60037 27.2894 7.19693 27.2726 6.87587 27.0714C6.55483 26.8704 6.36388 26.5145 6.37371 26.1359L6.55065 19.3135L21.6469 8.34763C22.2454 7.91293 22.3783 7.0754 21.9435 6.47696C21.5087 5.87851 20.6713 5.74578 20.0728 6.18048L4.72035 17.3324L1.01384 13.6258C0.612431 13.2247 0.316532 12.7298 0.153468 12.1862C-0.00843683 11.6466 -0.0347411 11.0754 0.0767933 10.5232C0.188472 9.91996 0.458132 9.35703 0.858377 8.89188C1.26136 8.42353 1.7821 8.07131 2.36678 7.87162L2.374 7.86916L25.3316 0.209498Z" fill="white"/>
</g>
<defs>
<clipPath id="clip0_4_84">
<rect width="30" height="30" fill="white"/>
</clipPath>
</defs>
</svg>
